<svg clip-rule="evenodd" fill-rule="evenodd" height="13.84mm" stroke-linecap="round" stroke-linejoin="round" viewBox="0 0 50.59 39.23" width="17.85mm" xmlns="http://www.w3.org/2000/svg"><path d="m50.598 6.871c0-2.793-2.267-5.061-5.06-5.061h-40.477c-2.793 0-5.061 2.268-5.061 5.061v27.385c0 2.793 2.268 5.061 5.061 5.061h40.477c2.793 0 5.06-2.268 5.06-5.061z" fill="#77b7f8"/><path d="m50.598 5.061c0-2.793-2.267-5.061-5.06-5.061h-40.477c-2.793 0-5.061 2.268-5.061 5.061v27.384c0 2.794 2.268 5.061 5.061 5.061h40.477c2.793 0 5.06-2.267 5.06-5.061z" fill="#acd6fb"/><path d="m5.421 12.611h10.812v9.412h-10.812z" fill="#62a9d2"/><path d="m16.243 18.023h-10.822l10.822-9.412z" fill="#1874b1" fill-rule="nonzero" transform="translate(0 4)"/><g fill="none" stroke-width="2"><path d="m5.501 22.864h10.422" stroke="#1e54af" transform="translate(0 -15)"/><path d="m5.501 26.704h10.422" stroke="#639bc7"/><path d="m5.501 30.705h10.422" stroke="#639bc7"/></g><path d="m19.893 12.501h10.812v9.402h-10.812z" fill="#62a9d2"/><path d="m30.715 17.913h-10.822l10.822-9.412z" fill="#1874b1" fill-rule="nonzero" transform="translate(0 4)"/><path d="m19.973 22.754h10.422" fill="none" stroke="#1e54af" stroke-width="2" transform="translate(0 -15)"/><path d="m19.973 26.594h10.422" fill="none" stroke="#639bc7" stroke-width="2"/><path d="m19.973 30.595h10.422" fill="none" stroke="#639bc7" stroke-width="2"/><path d="m34.366 12.721h10.812v9.402h-10.812z" fill="#62a9d2"/><path d="m45.178 18.133h-10.812l10.812-9.412z" fill="#1874b1" fill-rule="nonzero" transform="translate(0 4)"/><path d="m34.446 22.974h10.421" fill="none" stroke="#1e54af" stroke-width="2" transform="translate(0 -15)"/><path d="m34.446 26.814h10.421" fill="none" stroke="#639bc7" stroke-width="2"/><path d="m34.446 30.815h10.421" fill="none" stroke="#639bc7" stroke-width="2"/></svg>